# xmcd
#
# Track frame offsets: 
#        150
#        10250
#        21368
#        29698
#        41690
#        53488
#        65385
#        75312
#        87435
#        98455
#        108415
#        121473
#        132943
#        143760
#
# Disc length: 2074 seconds
#
# Revision: 1
# Processed by: cddbd v1.5.2PL0 Copyright (c) Steve Scherf et al.
# Submitted via: ExactAudioCopy v1.1
#
DISCID=af08180e
DTITLE=Various Artist - Spotlite On Hull Records - Volume 2
DYEAR=1994
DGENRE=R&B
TTITLE0=The Desires - Let It Be You (alt) (mono)
TTITLE1=The Heartbeats - A Thousand Miles Away (mono)
TTITLE2=The Monotones - Legend Of Sleepy Hollow (alt) (mono)
TTITLE3=Jackie and The Starlites - I'll Cry A 1000 Tears (mono)
TTITLE4=The Avons - Our Love Will Never End (mono)
TTITLE5=Shep and The Limelites - It's All Over Now (mono)
TTITLE6=The Elegants - Getting Dizzy (mono)
TTITLE7=The Pastels - So Far Away (mono)
TTITLE8=The Sparks - Virgin Island (mono)
TTITLE9=Rockin' Bradley and The Rockers - She's Mine, Not Yours (mono)
TTITLE10=The Avons - You Are So Close To Me (mono)
TTITLE11=The Monotones - Forever Yours (mono)
TTITLE12=The Legends - Now I'm Telling You (mono)
TTITLE13=Shep and The Limelites - Our Anniversary (mono)
EXTD=
EXTT0=
EXTT1=
EXTT2=
EXTT3=
EXTT4=
EXTT5=
EXTT6=
EXTT7=
EXTT8=
EXTT9=
EXTT10=
EXTT11=
EXTT12=
EXTT13=
PLAYORDER=
